# xmcd
#
# Track frame offsets:
#   150
#   17769
#   32122
#   47121
#   60556
#   74905
#   90238
#   108654
#   126555
#   146544
#   159672
#   179501
#   191505
#   204604
#   222605
#   231491
#   250531
#   264358
#   278084
#   293131
#   306628
#   325639
#   341653
#
# Disc length: 4761 seconds
#
# Revision: 0
# Processed by: cddbd v1.5.1PL0 Copyright (c) Steve Scherf et al.
# Submitted via: Media_Universe 3.0
#
DISCID=6e129717
DTITLE=Cledus. T.Judd - Cledus.T.Judd
DYEAR=1900
DGENRE=Country
TTITLE0=A Night I Can't Remember
TTITLE1=Any Gal Of Mine
TTITLE2=Cletus Went Down To Florida
TTITLE3=Every Light In The House Is Blown
TTITLE4=If Shania Was Mine
TTITLE5=Leave You Laughin' 
TTITLE6=Man Of Constant Borrow
TTITLE7=Please Take The Girl
TTITLE8=Plow Boy
TTITLE9=Third Rock From Her Thumb
TTITLE10=My Crowd
TTITLE11=Butt Scootin' Doggie
TTITLE12=Cadirac Style
TTITLE13=Don't Mess With America
TTITLE14=Fishin' Problem
TTITLE15=Hey Girls this Is Earl
TTITLE16=How Do You Milk A Cow
TTITLE17=I Hate Alan Jackson
TTITLE18=If George Strait Starts Dancin' 
TTITLE19=Indian Inlaws
TTITLE20=It's A Great Day To Be A Guy
TTITLE21=Just A Beer
TTITLE22=Livin Like John Travolta
EXTD=
EXTT0=
EXTT1=
EXTT2=
EXTT3=
EXTT4=
EXTT5=
EXTT6=
EXTT7=
EXTT8=
EXTT9=
EXTT10=
EXTT11=
EXTT12=
EXTT13=
EXTT14=
EXTT15=
EXTT16=
EXTT17=
EXTT18=
EXTT19=
EXTT20=
EXTT21=
EXTT22=
PLAYORDER=
